<svg xmlns="http://www.w3.org/2000/svg" viewBox="0 0 64 64" role="img" aria-labelledby="title">
  <title id="title">ABLITERATED.cloud brain favicon</title>
  <rect width="64" height="64" rx="17" fill="#111214"/>
  <g fill="#f7f7f4" stroke="#111214" stroke-linecap="round" stroke-linejoin="round" stroke-width="2">
    <path d="M31 17c-2.3-5-9.5-5.4-12-.3-5.1-.2-7.7 6-4.2 10-5.1 3.1-3.3 11.1 2.1 12.8-.5 6.3 7.4 10.4 14.1 6.2Z"/>
    <path d="M33 17c2.3-5 9.5-5.4 12-.3 5.1-.2 7.7 6 4.2 10 5.1 3.1 3.3 11.1-2.1 12.8.5 6.3-7.4 10.4-14.1 6.2Z"/>
  </g>
  <g fill="none" stroke="#565c66" stroke-linecap="round" stroke-width="1.8">
    <path d="M31 18v27M22 18c-4 2-3 7 1 8-5 .5-7 5-4 9M23 26c5 1 6 5 3 8-4 3-1 8 3 8M42 18c4 2 3 7-1 8 5 .5 7 5 4 9M41 26c-5 1-6 5-3 8 4 3 1 8-3 8"/>
    <path d="m19 35 7-1 5 4m14-3-7-1-5 4M23 26l7 2m11-2-7 2"/>
  </g>
  <circle cx="23" cy="26" r="2.6" fill="#00d9ff" stroke="#111214" stroke-width="1.5"/>
  <circle cx="41" cy="26" r="2.6" fill="#ff43cc" stroke="#111214" stroke-width="1.5"/>
  <circle cx="31" cy="38" r="2.6" fill="#9dff00" stroke="#111214" stroke-width="1.5"/>
</svg>
